# xmcd
#
# Track frame offsets:
#	183
#	14433
#	29133
#	43383
#	56733
#	67233
#	83583
#	94683
#	107358
#	121683
#	138708
#	153033
#	167733
#	180033
#	198858
#	214083
#	225708
#	244833
#	256683
#	265083
#	277008
#	287433
#	307083
#	320508
#
# Disc length: 4475 seconds
#
# Revision: 1
# Processed by: cddbd v1.4b42PL1 Copyright (c) Steve Scherf et al.
# Submitted via: audiograbber 1.80
#
DISCID=50117918
DTITLE=Endlessly - The Tom Jones Love Album
DYEAR=1900
DGENRE=
TTITLE0=Im Coming Home
TTITLE1=How do you say Goodbye
TTITLE2=Autumn Leaves
TTITLE3=Funny, Familiar, Forgotten Feelings
TTITLE4=I Wake Up Crying
TTITLE5=Let There be Love
TTITLE6=Once There was a Time
TTITLE7=The Bed
TTITLE8=I Tell The Sea
TTITLE9=Without Love
TTITLE10=Why Can't I Cry
TTITLE11=Set Me Free
TTITLE12=With These Hands
TTITLE13=Can't Stop Loving You
TTITLE14=He'll Have to Go
TTITLE15=Only a Fool
TTITLE16=I'll Never Fall in Love Again
TTITLE17=For the First Time in my Life
TTITLE18=To Wait For Love
TTITLE19=The Loser
TTITLE20=When The World Was Beautiful
TTITLE21=Little Green Apples
TTITLE22=A Minute of Your Time
TTITLE23=Endlessly
EXTD=
EXTT0=
EXTT1=
EXTT2=
EXTT3=
EXTT4=
EXTT5=
EXTT6=
EXTT7=
EXTT8=
EXTT9=
EXTT10=
EXTT11=
EXTT12=
EXTT13=
EXTT14=
EXTT15=
EXTT16=
EXTT17=
EXTT18=
EXTT19=
EXTT20=
EXTT21=
EXTT22=
EXTT23=
PLAYORDER=
